<?xml version="1.0" encoding="iso-8859-1"?>
<!-- Generator: Adobe Illustrator 16.0.0, SVG Export Plug-In . SVG Version: 6.00 Build 0)  -->
<!DOCTYPE svg PUBLIC "-//W3C//DTD SVG 1.1//EN" "http://www.w3.org/Graphics/SVG/1.1/DTD/svg11.dtd">
<svg version="1.1" id="Capa_1" xmlns="http://www.w3.org/2000/svg" xmlns:xlink="http://www.w3.org/1999/xlink" x="0px" y="0px"
	 width="445.878px" height="445.878px" viewBox="0 0 445.878 445.878" style="enable-background:new 0 0 445.878 445.878;" fill="#eeeeee"
	 xml:space="preserve">
<g>
	<path d="M426.024,86.447H209.705l-84.911,298.911c-2.568,7.967-9.854,13.482-18.22,13.771c-0.236,0-0.464,0.006-0.688,0.006
		c-8.092,0-15.41-4.924-18.436-12.478l-34.714-86.782H19.851C8.884,299.876,0,290.986,0,280.022
		c0-10.965,8.893-19.854,19.851-19.854H66.18c8.109,0,15.421,4.941,18.436,12.483l19.237,48.09l72.472-260.218
		c2.639-8.213,10.279-13.781,18.903-13.781h230.798c10.97,0,19.854,8.89,19.854,19.851S436.988,86.447,426.024,86.447z"/>
</g>
<g>
</g>
<g>
</g>
<g>
</g>
<g>
</g>
<g>
</g>
<g>
</g>
<g>
</g>
<g>
</g>
<g>
</g>
<g>
</g>
<g>
</g>
<g>
</g>
<g>
</g>
<g>
</g>
<g>
</g>
</svg>
